HIERARCHY
ROOT joint_0
{
	OFFSET 0.000000 0.000000 0.000000
	CHANNELS 6 Xposition Yposition Zposition Zrotation Yrotation Xrotation 
	JOINT joint_1
	{
		OFFSET 11.612000 -0.419000 106.198000
		CHANNELS 3 Zrotation Yrotation Xrotation
		JOINT joint_2
		{
			OFFSET -1.708000 -1.022000 97.564090
			CHANNELS 3 Zrotation Yrotation Xrotation
			JOINT joint_3
			{
				OFFSET -4.121000 -1.538000 97.375000
				CHANNELS 3 Zrotation Yrotation Xrotation
				JOINT joint_4
				{
					OFFSET 5.442000 -2.123000 132.795900
					CHANNELS 3 Zrotation Yrotation Xrotation
					JOINT joint_5
					{
						OFFSET 21.935000 0.195000 82.975100
						CHANNELS 3 Zrotation Yrotation Xrotation
						End Site
						{
							OFFSET 0.000000 0.000000 0.000000
						}
					}
				}
				JOINT joint_6
				{
					OFFSET 4.262000 -30.048000 73.899900
					CHANNELS 3 Zrotation Yrotation Xrotation
					JOINT joint_7
					{
						OFFSET 9.731000 -136.810010 -21.963010
						CHANNELS 3 Zrotation Yrotation Xrotation
						JOINT joint_8
						{
							OFFSET 33.360000 -35.709000 -267.597900
							CHANNELS 3 Zrotation Yrotation Xrotation
							JOINT joint_9
							{
								OFFSET 36.156000 -29.759000 -240.558040
								CHANNELS 3 Zrotation Yrotation Xrotation
								End Site
								{
									OFFSET 0.000000 0.000000 0.000000
								}
							}
						}
					}
				}
				JOINT joint_10
				{
					OFFSET 2.027000 27.734000 74.914920
					CHANNELS 3 Zrotation Yrotation Xrotation
					JOINT joint_11
					{
						OFFSET -5.183000 136.784000 -23.604980
						CHANNELS 3 Zrotation Yrotation Xrotation
						JOINT joint_12
						{
							OFFSET 29.806000 37.229000 -267.809940
							CHANNELS 3 Zrotation Yrotation Xrotation
							JOINT joint_13
							{
								OFFSET 36.890000 46.524990 -237.772030
								CHANNELS 3 Zrotation Yrotation Xrotation
								End Site
								{
									OFFSET 0.000000 0.000000 0.000000
								}
							}
						}
					}
				}
			}
		}
	}
	JOINT joint_14
	{
		OFFSET -7.290000 -102.873990 -124.314940
		CHANNELS 3 Zrotation Yrotation Xrotation
		JOINT joint_15
		{
			OFFSET -15.466000 -19.909010 -438.533020
			CHANNELS 3 Zrotation Yrotation Xrotation
			JOINT joint_16
			{
				OFFSET -26.899000 -18.922000 -464.797000
				CHANNELS 3 Zrotation Yrotation Xrotation
				JOINT joint_17
				{
					OFFSET 179.329000 -12.011000 -84.174000
					CHANNELS 3 Zrotation Yrotation Xrotation
					End Site
					{
						OFFSET 0.000000 0.000000 0.000000
					}
				}
			}
		}
	}
	JOINT joint_18
	{
		OFFSET -6.225000 101.546000 -125.479980
		CHANNELS 3 Zrotation Yrotation Xrotation
		JOINT joint_19
		{
			OFFSET -13.973000 7.996000 -438.963010
			CHANNELS 3 Zrotation Yrotation Xrotation
			JOINT joint_20
			{
				OFFSET -44.294000 5.716000 -463.813970
				CHANNELS 3 Zrotation Yrotation Xrotation
				JOINT joint_21
				{
					OFFSET 178.505000 -4.689000 -85.139000
					CHANNELS 3 Zrotation Yrotation Xrotation
					End Site
					{
						OFFSET 0.000000 0.000000 0.000000
					}
				}
			}
		}
	}
}
MOTION
Frames: 16
Frame Time: 0.016667
-3353.754395 878.608398 1127.498047 -2.190689 -3.800334 0.528755 -0.074757 6.514871 -0.744995 -0.130151 -1.358552 0.187562 -0.101054 1.292471 -0.171003 0.137804 -1.229972 -0.509840 0.000000 0.000000 0.000000 -2.804666 -2.212223 0.958255 0.262850 -2.877487 -1.436328 1.048285 -5.357052 2.184403 0.000000 0.000000 0.000000 1.774304 -2.061287 -0.621636 -0.759370 -2.468151 0.055635 -1.554315 -5.980543 -2.533977 0.000000 0.000000 0.000000 -0.609196 2.536847 0.048415 -0.549070 2.120372 -1.040447 -0.399544 -2.708475 -0.368745 0.000000 0.000000 0.000000 4.717169 3.954575 1.071928 4.632207 -2.937446 0.537925 4.559089 1.672976 2.207545 0.000000 0.000000 0.000000 
-3352.343994 878.463928 1127.454956 -2.073269 -3.658111 0.524258 -0.071232 6.630605 -0.712255 -0.128998 -1.368283 0.186707 -0.099775 1.303747 -0.172228 0.144729 -1.443537 -0.534571 0.000000 0.000000 0.000000 -3.067397 -2.109375 0.910999 0.262848 -2.819266 -1.519644 1.195026 -5.888190 2.643020 0.000000 0.000000 0.000000 1.831885 -1.992357 -0.654044 -0.775805 -2.407331 0.149653 -1.679457 -6.463066 -2.750772 0.000000 0.000000 0.000000 -0.658145 2.496407 0.044574 -0.599304 2.085439 -1.020222 -0.445884 -2.766791 -0.394389 0.000000 0.000000 0.000000 4.696154 3.861884 1.078341 4.612412 -2.937119 0.521907 4.538262 1.652253 2.197382 0.000000 0.000000 0.000000 
-3350.375000 878.357422 1127.384033 -1.943715 -3.437022 0.500689 -0.093639 6.732742 -0.635332 -0.155304 -1.378027 0.163536 -0.124483 1.314061 -0.157762 0.150331 -1.700318 -0.554478 0.000000 0.000000 0.000000 -3.353805 -1.838976 0.702868 0.275651 -2.580834 -1.508857 1.570697 -7.458144 3.601404 0.000000 0.000000 0.000000 1.960521 -1.690253 -0.608401 -0.827286 -2.136302 0.170291 -2.030398 -7.972804 -3.195861 0.000000 0.000000 0.000000 -0.749197 2.418157 0.053951 -0.691738 2.030966 -1.010875 -0.531202 -2.907560 -0.443837 0.000000 0.000000 0.000000 4.688742 3.732770 1.098947 4.606561 -2.986689 0.491194 4.530493 1.616557 2.193107 0.000000 0.000000 0.000000 
-3347.961426 878.285828 1127.296997 -1.798684 -3.153171 0.462631 -0.135717 6.832217 -0.520765 -0.202547 -1.384145 0.123082 -0.169147 1.319257 -0.131378 0.155593 -1.996948 -0.573612 0.000000 0.000000 0.000000 -3.674538 -1.441655 0.425515 0.301672 -2.217243 -1.490508 2.119264 -9.761004 4.923443 0.000000 0.000000 0.000000 2.143958 -1.219554 -0.559240 -0.886628 -1.706079 0.188468 -2.532128 -10.222357 -3.788207 0.000000 0.000000 0.000000 -0.875275 2.309660 0.072417 -0.819444 1.961795 -1.007453 -0.649300 -3.106713 -0.512572 0.000000 0.000000 0.000000 4.689361 3.570358 1.128379 4.608995 -3.071141 0.451546 4.530700 1.576906 2.192566 0.000000 0.000000 0.000000 
-3344.913330 878.072876 1127.203003 -1.647433 -2.789745 0.426546 -0.181191 6.910169 -0.413151 -0.252636 -1.392604 0.081960 -0.216489 1.325705 -0.102864 0.159113 -2.377771 -0.585392 0.000000 0.000000 0.000000 -3.989002 -0.934754 0.038902 0.342067 -1.735938 -1.466479 2.907285 -13.372643 6.528657 0.000000 0.000000 0.000000 2.299404 -0.628560 -0.344903 -0.961471 -1.155112 0.192766 -3.260474 -13.572090 -4.731958 0.000000 0.000000 0.000000 -0.997112 2.165268 0.099813 -0.943272 1.875551 -1.007600 -0.761767 -3.366869 -0.582765 0.000000 0.000000 0.000000 4.680760 3.403173 1.188143 4.603102 -3.227104 0.374080 4.520808 1.494225 2.186005 0.000000 0.000000 0.000000 
-3341.260010 877.595276 1127.128052 -1.490910 -2.335675 0.401516 -0.221103 6.943956 -0.335189 -0.295116 -1.405274 0.051437 -0.256881 1.333076 -0.081070 0.161820 -2.872673 -0.592841 0.000000 0.000000 0.000000 -4.233305 -0.262523 -0.309700 0.352354 -1.085966 -1.616301 4.000259 -19.021665 8.354690 0.000000 0.000000 0.000000 2.356538 0.086007 0.020637 -0.999594 -0.444395 0.342478 -4.266798 -18.466295 -6.221166 0.000000 0.000000 0.000000 -1.088508 1.972722 0.141221 -1.037175 1.773096 -1.016159 -0.843248 -3.692674 -0.642827 0.000000 0.000000 0.000000 4.651283 3.245921 1.305882 4.578614 -3.486395 0.224371 4.488570 1.348409 2.166930 0.000000 0.000000 0.000000 
-3337.081787 876.918335 1127.071045 -1.325108 -1.797893 0.380799 -0.261791 6.941039 -0.267487 -0.336666 -1.422404 0.027954 -0.296906 1.342446 -0.065161 0.165589 -3.465742 -0.604881 0.000000 0.000000 0.000000 -4.400330 0.546149 -0.381185 0.262535 -0.317217 -2.144039 5.264927 -26.395825 10.264183 0.000000 0.000000 0.000000 2.341049 0.889328 0.310465 -0.902425 0.429697 0.801270 -5.412934 -24.701401 -8.113868 0.000000 0.000000 0.000000 -1.164695 1.733852 0.198593 -1.116291 1.655268 -1.034397 -0.908892 -4.077928 -0.699425 0.000000 0.000000 0.000000 4.607475 3.086668 1.475785 4.542129 -3.834067 0.012324 4.441632 1.160898 2.139497 0.000000 0.000000 0.000000 
-3331.645020 876.077576 1126.932007 -1.169643 -1.170293 0.370710 -0.298629 6.943424 -0.231014 -0.372867 -1.445149 0.014891 -0.332148 1.357838 -0.056856 0.165733 -4.153236 -0.601893 0.000000 0.000000 0.000000 -4.518649 1.216833 -0.431317 0.046498 0.328697 -2.821562 6.448472 -34.412196 12.118711 0.000000 0.000000 0.000000 2.267297 1.576431 0.667447 -0.691336 1.248134 1.273220 -6.520521 -31.688221 -10.081716 0.000000 0.000000 0.000000 -1.226937 1.485228 0.252223 -1.181254 1.508315 -1.038286 -0.959334 -4.502264 -0.751483 0.000000 0.000000 0.000000 4.550193 2.940186 1.642940 4.490580 -4.240632 -0.193754 4.383126 0.919022 2.104771 0.000000 0.000000 0.000000 
-3324.477295 875.116150 1126.652954 -1.044645 -0.429919 0.375259 -0.322277 6.994988 -0.247459 -0.394174 -1.468954 0.015694 -0.353101 1.375154 -0.054046 0.159125 -4.985088 -0.567764 0.000000 0.000000 0.000000 -4.581245 1.646496 -0.655919 -0.351230 0.777834 -3.570912 7.481064 -42.937309 14.000774 0.000000 0.000000 0.000000 2.090547 2.071596 1.166538 -0.390701 1.938100 1.647061 -7.564266 -39.429322 -12.039577 0.000000 0.000000 0.000000 -1.269965 1.239412 0.287137 -1.226372 1.306024 -1.005997 -0.988905 -4.962235 -0.796090 0.000000 0.000000 0.000000 4.472896 2.825510 1.771894 4.413730 -4.734491 -0.348769 4.308440 0.602902 2.059821 0.000000 0.000000 0.000000 
-3315.860352 874.024597 1126.274048 -0.941270 0.421619 0.389959 -0.336320 7.072965 -0.301797 -0.403423 -1.477436 0.026137 -0.363028 1.379201 -0.060260 0.146942 -5.961524 -0.506925 0.000000 0.000000 0.000000 -4.578717 1.859426 -0.822906 -0.984198 1.029343 -4.553827 8.358527 -52.217427 15.882479 0.000000 0.000000 0.000000 1.818858 2.379389 1.643037 0.019738 2.519690 2.115771 -8.540056 -47.977169 -14.054413 0.000000 0.000000 0.000000 -1.293558 0.982149 0.313758 -1.251506 1.051761 -0.948578 -0.998356 -5.451790 -0.833129 0.000000 0.000000 0.000000 4.375610 2.735710 1.885267 4.313058 -5.327969 -0.475224 4.217771 0.232001 2.005085 0.000000 0.000000 0.000000 
-3305.710938 872.686646 1125.756958 -0.826045 1.302347 0.418492 -0.365676 7.092543 -0.377842 -0.426187 -1.454837 0.040916 -0.387507 1.352301 -0.069720 0.130645 -6.837004 -0.423529 0.000000 0.000000 0.000000 -4.624432 1.629649 -0.971622 -1.713580 0.867976 -5.429089 9.045887 -61.024191 17.558015 0.000000 0.000000 0.000000 1.603577 2.333851 2.180820 0.385947 2.740850 2.431607 -9.413756 -56.433793 -15.784548 0.000000 0.000000 0.000000 -1.324240 0.764530 0.338078 -1.283263 0.817000 -0.886421 -1.015903 -5.885461 -0.870010 0.000000 0.000000 0.000000 4.290841 2.631680 1.981904 4.225343 -5.813008 -0.577338 4.139620 -0.109114 1.956626 0.000000 0.000000 0.000000 
-3293.846436 870.997925 1125.015015 -0.661395 2.184768 0.479284 -0.430505 6.986954 -0.491424 -0.482662 -1.410454 0.063976 -0.446605 1.307067 -0.081989 0.111157 -7.465583 -0.314842 0.000000 0.000000 0.000000 -4.805194 0.780696 -1.083614 -2.463685 0.182988 -6.031586 9.641051 -68.988879 18.965827 0.000000 0.000000 0.000000 1.496343 1.812870 2.758088 0.644991 2.456166 2.542197 -10.271833 -64.727550 -16.989329 0.000000 0.000000 0.000000 -1.376562 0.619302 0.337313 -1.335658 0.609843 -0.819007 -1.058432 -6.180168 -0.908967 0.000000 0.000000 0.000000 4.232583 2.482049 2.050558 4.166864 -6.093023 -0.673951 4.084893 -0.308781 1.922728 0.000000 0.000000 0.000000 
-3280.303223 869.002075 1124.062988 -0.456214 3.100764 0.574244 -0.523204 6.788415 -0.650197 -0.565081 -1.352475 0.096527 -0.532425 1.252082 -0.096869 0.089507 -7.941290 -0.181380 0.000000 0.000000 0.000000 -5.087442 -0.750822 -1.062508 -3.316641 -0.978611 -6.466445 10.174330 -76.538808 20.160273 0.000000 0.000000 0.000000 1.435153 0.763965 3.275789 0.875648 1.644033 2.535955 -11.159524 -73.058839 -17.716346 0.000000 0.000000 0.000000 -1.441419 0.527400 0.307546 -1.399304 0.398727 -0.737399 -1.116917 -6.349106 -0.946524 0.000000 0.000000 0.000000 4.187167 2.300858 2.090210 4.122262 -6.249911 -0.764358 4.041264 -0.381369 1.896812 0.000000 0.000000 0.000000 
-3265.598389 866.831482 1123.168945 -0.288551 3.927218 0.649636 -0.618647 6.571840 -0.771343 -0.654695 -1.278874 0.124252 -0.625934 1.183178 -0.109411 0.059511 -8.223148 -0.000803 0.000000 0.000000 0.000000 -5.386217 -2.909732 -1.004633 -4.208670 -2.438382 -6.587423 10.564287 -82.862974 21.230488 0.000000 0.000000 0.000000 1.503240 -0.828544 3.824937 1.093562 0.291509 2.267367 -12.018965 -80.262539 -18.218451 0.000000 0.000000 0.000000 -1.530339 0.494529 0.352068 -1.488799 0.365730 -0.700733 -1.197704 -6.496620 -0.992548 0.000000 0.000000 0.000000 4.184562 2.115954 2.122872 4.122941 -6.088517 -0.779410 4.034391 -0.583719 1.884281 0.000000 0.000000 0.000000 
-3249.940430 864.532410 1122.480957 -0.210415 4.578789 0.663030 -0.697638 6.392460 -0.789554 -0.738096 -1.200683 0.132367 -0.712947 1.114575 -0.113347 0.018632 -8.283144 0.244506 0.000000 0.000000 0.000000 -5.663002 -5.632648 -0.801191 -5.163440 -4.066541 -6.608340 10.726019 -87.825228 22.462148 0.000000 0.000000 0.000000 1.802425 -3.076945 4.221311 1.343949 -1.517245 1.991578 -12.834774 -86.113783 -18.834115 0.000000 0.000000 0.000000 -1.663644 0.524803 0.561406 -1.626806 0.654735 -0.765271 -1.317978 -6.693423 -1.059603 0.000000 0.000000 0.000000 4.257869 1.935359 2.154582 4.203219 -5.435231 -0.657102 4.095105 -1.126753 1.894001 0.000000 0.000000 0.000000 
-3233.130615 862.051514 1121.894043 -0.193275 5.104585 0.633075 -0.771865 6.224789 -0.739606 -0.825025 -1.133448 0.130210 -0.803439 1.067136 -0.112271 -0.027528 -8.144350 0.542577 0.000000 0.000000 0.000000 -5.953940 -9.041970 -0.174218 -6.210484 -5.886746 -6.730830 -169.404544 -88.123376 -156.080630 0.000000 0.000000 0.000000 2.299126 -6.207003 4.146645 1.567488 -3.686603 1.953430 166.420163 -88.869501 160.617616 0.000000 0.000000 0.000000 -1.837228 0.615829 0.895925 -1.808226 1.190897 -0.913028 -1.478322 -6.872211 -1.142988 0.000000 0.000000 0.000000 4.394086 1.746733 2.175838 4.349670 -4.369654 -0.415544 4.217549 -1.873280 1.926033 0.000000 0.000000 0.000000 
